<?xml version="1.0" standalone="no"?>
<!DOCTYPE svg PUBLIC "-//W3C//DTD SVG 20010904//EN"
 "http://www.w3.org/TR/2001/REC-SVG-20010904/DTD/svg10.dtd">
<svg version="1.0" xmlns="http://www.w3.org/2000/svg"
 width="150.000000pt" height="125.000000pt" viewBox="0 0 150.000000 125.000000"
 preserveAspectRatio="xMidYMid meet">
<metadata>
Created by potrace 1.14, written by Peter Selinger 2001-2017
</metadata>
<g transform="translate(0.000000,125.000000) scale(0.100000,-0.100000)"
fill="#000000" stroke="none">
<path d="M1145 1090 c-88 -87 -164 -156 -170 -153 -5 2 0 -4 12 -15 23 -20 21
-35 -3 -25 -8 3 -14 0 -14 -6 0 -6 11 -10 24 -9 14 1 23 5 20 9 -2 4 2 10 8
12 10 4 10 6 1 6 -7 1 -13 6 -13 12 0 5 5 7 12 3 6 -4 8 -3 5 3 -3 5 23 38 58
73 52 52 67 61 78 51 8 -6 20 -10 27 -9 7 2 15 -3 17 -10 3 -8 -1 -10 -14 -6
-16 6 -16 5 2 -9 11 -8 23 -13 27 -11 7 5 12 -10 9 -28 0 -5 5 -7 12 -5 6 1
11 -4 9 -11 -1 -8 2 -11 8 -7 5 3 10 1 10 -5 0 -6 5 -8 12 -4 8 5 9 2 5 -10
-4 -9 -3 -15 2 -11 6 3 14 -2 19 -11 6 -11 11 -13 16 -5 4 6 2 11 -5 11 -8 0
-8 4 1 15 7 8 17 12 23 8 6 -3 7 -1 3 6 -6 9 -11 9 -21 1 -9 -8 -14 -6 -19 6
-9 23 -8 24 12 18 13 -5 14 -4 3 4 -8 6 -10 15 -5 23 14 24 11 50 -7 60 -13 7
-21 5 -28 -8 -9 -16 -10 -16 -11 -2 0 23 24 41 38 29 7 -6 10 -7 7 -4 -3 4 1
14 8 22 8 10 8 13 1 9 -7 -4 -15 0 -18 9 -9 23 -8 24 12 18 13 -5 14 -4 3 4
-8 6 -10 15 -5 23 11 19 13 49 2 55 -4 3 -6 9 -3 14 3 5 2 11 -3 14 -4 2 -80
-67 -167 -154z m170 101 c-1 -9 -7 -26 -14 -39 -6 -12 -10 -26 -7 -31 7 -11
-24 -52 -35 -46 -5 4 -9 1 -9 -6 0 -16 -13 -3 -16 16 -3 18 8 19 23 4 8 -8 13
-8 18 0 3 6 1 10 -6 9 -6 -2 -13 2 -16 9 -3 8 3 11 16 8 14 -3 18 0 14 12 -5
12 -7 12 -14 1 -7 -10 -9 -10 -9 2 -1 12 -3 11 -11 -3 -6 -9 -15 -14 -21 -11
-7 4 -8 2 -4 -4 4 -7 1 -12 -6 -13 -11 0 -11 -2 0 -6 10 -4 9 -8 -4 -17 -15
-12 -15 -13 0 -14 9 -1 23 -3 31 -4 8 -1 17 -8 20 -17 6 -14 8 -13 21 3 8 11
14 14 14 7 0 -7 4 -10 8 -7 12 7 8 -25 -7 -52 -6 -12 -9 -27 -5 -33 14 -24
-34 11 -50 36 -9 14 -22 23 -28 19 -7 -4 -8 -3 -4 5 10 15 -12 41 -28 35 -8
-3 -16 2 -20 12 -6 15 -4 15 10 3 15 -12 16 -11 10 11 -6 19 -5 21 3 10 9 -13
11 -13 11 1 0 8 21 35 48 59 26 24 46 47 45 50 -1 4 4 7 11 7 7 0 12 -7 11
-16z"/>
<path d="M1281 1161 c-15 -11 -18 -18 -8 -18 8 0 19 9 26 19 14 22 12 22 -18
-1z"/>
<path d="M1227 1041 c12 -10 20 -21 17 -24 -3 -3 0 -8 7 -13 8 -4 10 -3 5 4
-4 7 -2 12 3 12 6 0 11 -2 11 -4 0 -2 3 -12 7 -22 5 -13 3 -15 -7 -9 -9 5 -11
4 -6 -3 10 -16 11 -16 31 14 9 15 13 24 8 21 -5 -3 -29 5 -54 19 -31 17 -37
19 -22 5z"/>
<path d="M1330 1069 c0 -5 5 -7 10 -4 6 3 10 8 10 11 0 2 -4 4 -10 4 -5 0 -10
-5 -10 -11z"/>
<path d="M590 929 c0 -4 8 -10 18 -12 12 -3 9 -5 -7 -6 -24 -1 -24 -2 12 -35
22 -20 33 -37 27 -41 -22 -14 -8 -22 25 -15 19 4 36 4 39 -1 2 -5 3 -4 2 3 -2
7 -8 14 -14 14 -7 1 -16 2 -22 3 -5 0 -7 8 -4 16 4 8 10 13 14 10 5 -3 11 -1
15 5 3 5 14 10 23 10 15 0 15 -2 2 -10 -8 -5 -10 -10 -4 -10 12 0 34 20 34 32
0 14 -44 48 -62 48 -18 0 -24 -11 -11 -24 11 -11 12 -36 1 -36 -6 0 -7 7 -4
15 3 9 1 15 -7 14 -32 -4 -41 1 -24 14 16 11 13 12 -18 13 -19 0 -35 -3 -35
-7z m148 -37 c6 -19 -22 -3 -37 20 -14 22 -13 22 10 7 12 -9 25 -21 27 -27z
m-79 -21 c0 -10 -2 -11 -6 -3 -2 6 -11 12 -18 12 -8 0 -16 4 -19 9 -3 4 6 6
19 3 15 -2 25 -11 24 -21z"/>
<path d="M946 876 c5 -13 4 -17 -4 -12 -8 5 -10 2 -5 -10 6 -15 7 -15 16 1 6
11 5 21 -3 28 -8 9 -9 7 -4 -7z"/>
<path d="M908 825 c-10 -23 -12 -23 -24 -7 -12 16 -12 16 -11 -2 1 -12 -8 -25
-23 -33 -14 -7 -24 -17 -23 -23 2 -5 -7 -8 -20 -6 -12 2 -21 9 -19 15 1 6 -2
11 -8 11 -12 0 -13 -13 -3 -24 11 -10 12 -36 2 -36 -5 0 -9 3 -9 8 0 4 -15 8
-32 8 -18 1 -27 -1 -20 -3 10 -4 10 -8 0 -21 -12 -15 -11 -16 4 -4 15 12 18
11 24 -12 3 -14 10 -26 15 -26 5 0 6 8 2 18 -5 14 -4 15 8 4 12 -11 10 -16
-11 -33 -14 -10 -18 -17 -9 -14 23 8 32 -21 13 -40 -9 -8 -11 -15 -6 -15 5 0
17 10 26 23 10 14 14 16 10 5 -4 -10 -2 -18 4 -18 6 0 9 8 7 18 -1 9 -8 16
-14 15 -14 -4 -14 14 0 22 6 5 4 16 -7 32 -15 24 -15 26 0 20 11 -5 15 -3 10
5 -5 7 -2 9 8 6 9 -4 30 8 52 28 20 19 32 34 26 34 -6 0 -8 5 -5 10 4 6 10 8
14 6 12 -8 34 11 38 33 4 28 -5 26 -19 -4z m-63 -75 c-17 -17 -31 -26 -33 -20
-2 5 -9 7 -15 3 -7 -3 -8 -2 -4 3 5 5 16 9 25 9 9 0 16 6 14 13 -1 8 2 11 7 8
5 -4 12 -2 16 4 3 5 9 10 12 10 4 0 -6 -14 -22 -30z m-75 -35 c0 -12 -19 -12
-23 0 -4 9 -1 12 9 8 7 -3 14 -7 14 -8z"/>
<path d="M829 813 c-13 -16 -12 -17 4 -4 9 7 17 15 17 17 0 8 -8 3 -21 -13z"/>
<path d="M684 785 c-4 -9 -4 -19 0 -22 3 -4 6 2 6 13 0 16 2 17 10 4 6 -9 10
-10 10 -3 0 19 -20 26 -26 8z"/>
<path d="M647 770 c10 -11 19 -20 20 -20 7 0 -3 26 -12 32 -20 15 -24 8 -8
-12z"/>
<path d="M596 683 c-6 -14 -5 -15 5 -6 7 7 10 15 7 18 -3 3 -9 -2 -12 -12z"/>
<path d="M640 690 c-9 -6 -10 -10 -3 -10 6 0 15 5 18 10 8 12 4 12 -15 0z"/>
<path d="M680 690 c-9 -6 -10 -10 -3 -10 6 0 15 5 18 10 8 12 4 12 -15 0z"/>
<path d="M470 640 c0 -6 -8 -14 -17 -17 -28 -11 -56 -40 -44 -47 5 -4 30 8 55
26 32 22 42 34 33 40 -17 11 -27 10 -27 -2z m20 -4 c0 -2 -8 -10 -17 -17 -16
-13 -17 -12 -4 4 13 16 21 21 21 13z m-50 -41 c-7 -8 -17 -15 -23 -15 -6 0 -2
7 9 15 25 19 30 19 14 0z"/>
<path d="M530 629 c0 -5 5 -7 10 -4 6 3 10 8 10 11 0 2 -4 4 -10 4 -5 0 -10
-5 -10 -11z"/>
<path d="M695 590 c3 -5 8 -10 11 -10 2 0 4 5 4 10 0 6 -5 10 -11 10 -5 0 -7
-4 -4 -10z"/>
<path d="M765 563 c-11 -17 -12 -23 -3 -21 7 2 13 -4 13 -12 0 -18 -46 -30
-64 -16 -11 8 -13 8 -8 0 4 -8 -2 -11 -18 -10 -14 0 -25 6 -25 11 0 6 -5 3
-11 -5 -8 -11 -12 -12 -16 -2 -2 6 -9 12 -14 12 -6 0 -7 -4 -4 -10 7 -11 -8
-14 -18 -3 -4 3 -25 7 -46 9 -44 3 -46 -5 -10 -56 18 -27 67 -216 73 -279 4
-50 -13 -110 -35 -122 -26 -14 -24 -29 4 -23 12 3 35 7 51 9 46 6 50 16 37 97
-13 86 -18 123 -26 201 -6 55 -5 57 18 57 23 0 30 -14 88 -171 34 -94 69 -173
76 -176 7 -3 19 -1 26 5 6 5 27 13 44 17 58 12 53 30 -7 25 -14 -1 -22 1 -19
5 4 3 -6 21 -22 38 -29 31 -64 126 -88 239 -10 41 -8 51 13 88 13 22 22 52 20
65 -1 14 1 25 5 25 4 0 8 6 8 13 0 22 -26 16 -42 -10z m22 -2 c0 -11 -5 -18
-9 -15 -4 3 -5 11 -1 19 7 21 12 19 10 -4z"/>
<path d="M365 570 c2 -4 14 -10 26 -13 16 -4 19 -3 11 5 -14 14 -45 20 -37 8z"/>
<path d="M358 543 c6 -2 18 -2 25 0 6 3 1 5 -13 5 -14 0 -19 -2 -12 -5z"/>
<path d="M162 358 c-128 -130 -159 -165 -149 -176 9 -11 12 -10 19 8 4 12 12
19 17 15 5 -3 12 3 16 14 3 10 15 27 27 37 12 11 18 14 15 8 -4 -7 -1 -14 7
-17 8 -3 17 1 20 9 3 8 2 13 -3 9 -11 -6 -8 21 3 32 4 4 12 9 17 9 5 1 14 2
19 3 6 0 10 6 10 12 0 5 -5 7 -12 3 -7 -4 -8 -3 -4 4 4 6 13 9 21 6 11 -5 12
-11 4 -25 -5 -11 -14 -17 -20 -14 -5 4 -9 0 -9 -7 0 -10 -2 -10 -9 1 -5 8 -11
9 -15 3 -3 -5 1 -13 9 -16 12 -4 13 -10 6 -25 -6 -10 -8 -21 -5 -23 3 -3 -7
-5 -20 -5 -14 -1 -23 3 -21 8 3 4 0 11 -6 15 -8 4 -9 3 -5 -5 4 -6 0 -14 -8
-17 -9 -3 -13 -11 -10 -16 4 -6 10 -5 15 3 6 10 9 10 9 2 0 -6 9 -10 20 -8 11
2 23 -1 26 -7 5 -7 0 -9 -14 -6 -12 4 -22 3 -22 -2 0 -4 11 -10 25 -12 13 -3
22 -1 19 3 -9 15 40 5 54 -11 12 -13 13 -13 6 0 -4 8 -16 27 -26 42 -21 31
-24 45 -5 29 8 -6 18 -7 22 -3 5 4 6 0 3 -8 -3 -9 3 -26 13 -39 11 -13 19 -19
19 -13 0 5 8 9 18 8 12 -1 16 5 14 19 -2 19 -1 18 10 -2 13 -21 16 -23 39 -23
8 0 7 -6 -2 -17 -11 -15 -11 -16 1 -6 7 7 14 22 15 33 1 11 0 18 -2 16 -4 -3
-57 46 -59 55 0 2 -20 23 -44 47 l-44 43 67 65 c37 36 73 64 81 61 7 -3 19 -1
27 5 11 8 11 9 -3 5 -17 -6 -42 15 -31 26 3 4 4 7 2 7 -3 0 -78 -73 -167 -162z
m158 -163 c0 -2 -7 -2 -15 1 -8 4 -13 10 -10 14 8 13 -22 19 -35 7 -10 -9 -12
-8 -7 5 3 10 0 24 -8 32 -8 7 -11 17 -7 20 3 4 -2 4 -13 0 -11 -4 -17 -4 -13
1 4 4 2 17 -3 29 -6 11 16 -7 50 -42 33 -35 61 -65 61 -67z m-115 85 c-3 -4 7
-15 20 -24 14 -9 23 -22 19 -28 -4 -6 1 -17 12 -25 18 -13 18 -13 -1 -11 -28
5 -46 18 -40 29 4 5 1 17 -4 26 -7 12 -10 14 -11 4 0 -10 -3 -11 -13 -2 -8 6
-17 7 -21 3 -4 -4 -6 0 -4 8 4 18 30 40 41 33 4 -2 5 -8 2 -13z m-31 -71 c-3
-5 0 -9 7 -9 7 0 10 -2 7 -5 -11 -11 -37 7 -35 25 1 14 4 16 14 8 7 -5 10 -14
7 -19z"/>
<path d="M185 281 c-3 -5 -2 -12 3 -15 5 -3 9 1 9 9 0 17 -3 19 -12 6z"/>
<path d="M345 510 c-3 -5 1 -10 9 -10 9 0 16 5 16 10 0 6 -4 10 -9 10 -6 0
-13 -4 -16 -10z"/>
<path d="M40 189 c0 -3 14 -6 30 -7 17 0 30 2 30 6 0 4 -13 7 -30 7 -16 1 -30
-2 -30 -6z"/>
<path d="M110 136 c0 -2 7 -7 16 -10 8 -3 12 -2 9 4 -6 10 -25 14 -25 6z"/>
<path d="M239 83 c-13 -16 -12 -17 4 -4 16 13 21 21 13 21 -2 0 -10 -8 -17
-17z"/>
<path d="M175 70 c3 -5 8 -10 11 -10 2 0 4 5 4 10 0 6 -5 10 -11 10 -5 0 -7
-4 -4 -10z"/>
</g>
</svg>
